<?xml version="1.0" encoding="UTF-8"?>
<svg width="60px" height="60px" viewBox="0 0 60 60" version="1.1" xmlns="http://www.w3.org/2000/svg" xmlns:xlink="http://www.w3.org/1999/xlink">
    <title>219-dollar-bill-right-b1-circle</title>
    <g id="Page-1" stroke="none" stroke-width="1" fill="none" fill-rule="evenodd">
        <g id="1.12-Simplicity-Card-PDP_Card-Carousel" transform="translate(-684.000000, -2856.000000)">
            <g id="Group-3" transform="translate(212.000000, 2856.000000)">
                <g id="219-dollar-bill-right-b1-circle" transform="translate(472.000000, 0.000000)">
                    <circle id="Oval" fill="#333333" fill-rule="nonzero" cx="30" cy="30" r="30"></circle>
                    <path d="M43.2,34.1842105 L39.2210526,31.6894737 C39.0443806,31.5737401 38.8280746,31.5352635 38.6223293,31.5829726 C38.416584,31.6306816 38.2392863,31.7604286 38.1315789,31.9421053 C37.908746,32.3140529 38.0204228,32.7956593 38.3842105,33.0315789 L41.0526316,34.7368421 L32.7631579,34.7368421 C32.3271436,34.7368421 31.9736842,35.0903015 31.9736842,35.5263158 C31.9736842,35.9623301 32.3271436,36.3157895 32.7631579,36.3157895 L41.0526316,36.3157895 L38.3368421,38.0210526 C38.0970981,38.1705401 37.9553161,38.4365741 37.964904,38.7189422 C37.9744919,39.0013103 38.1339931,39.2571142 38.3833251,39.3899948 C38.632657,39.5228755 38.9339402,39.5126453 39.1736842,39.3631579 L43.1526316,36.8684211 C43.8836547,36.4247649 44.1286484,35.4797893 43.7052632,34.7368421 C43.5757937,34.5377642 43.4030867,34.3704543 43.2,34.2473684 M44.2105263,26.0842105 L44.2105263,15.0315789 C44.2189576,14.4034183 43.9774789,13.7976418 43.539224,13.3475423 C43.1009692,12.8974427 42.5018464,12.6398986 41.8736842,12.6315789 L13.4210526,12.6315789 C12.790163,12.6315789 12.1853406,12.8832606 11.7407188,13.3308465 C11.296097,13.7784324 11.0484256,14.3849139 11.0525789,15.0157895 L11.0525789,29.2263158 C11.0613109,30.5281882 12.1191512,31.5789763 13.4210526,31.5789474 L25.9578947,31.5789474 C25.500066,32.8447351 25.2650108,34.1802764 25.2631579,35.5263158 C25.2631579,41.0951895 29.1433101,45.9116475 34.5845612,47.097034 C40.0258123,48.2824204 45.5578173,45.5164179 47.8742589,40.4521851 C50.1907004,35.3879524 48.6656253,29.3939558 44.2105263,26.0526316 L44.2105263,26.0842105 Z M41.8736842,14.2105263 C42.3096985,14.2105263 42.6631579,14.5639857 42.6631579,15 L42.6631579,25.0421053 C40.9500484,24.140188 39.0412619,23.6738368 37.1052632,23.6842105 L37.0105263,23.6842105 C37.1237802,23.1121421 37.1819408,22.5305353 37.1842105,21.9473684 C37.2274892,18.8746416 35.7500753,15.9789103 33.2368421,14.2105263 L41.8736842,14.2105263 Z M13.4210526,30 C12.9850384,30 12.6315789,29.6465406 12.6315789,29.2105263 L12.6315789,15 C12.6315789,14.5639857 12.9850384,14.2105263 13.4210526,14.2105263 L22.8947368,14.2105263 C20.3219013,15.9363493 18.781476,18.8335338 18.7894737,21.9315789 C18.8024754,25.1609929 20.4022941,28.1776251 23.0684211,30 L13.4210526,30 Z M20.4157248,21.9631579 C20.4073918,19.9099414 21.2171487,17.937939 22.6660382,16.4831237 C24.1149276,15.0283083 26.0836085,14.2105263 28.1368421,14.2105263 C30.1580034,14.22251 32.0891525,15.0480594 33.4943896,16.5008309 C34.8996268,17.9536025 35.6604994,19.911137 35.6052632,21.9315789 C35.6028755,22.5590295 35.528709,23.1841469 35.3842105,23.7947368 C33.0231832,24.140709 30.8217523,25.1918923 29.0684211,26.8105263 L29.0684211,26.2105263 C29.6273946,26.0917368 30.1417038,25.8181681 30.5526316,25.4210526 C31.0261991,24.9709758 31.2798988,24.3367265 31.2473684,23.6842105 C31.281695,22.6678333 30.6369269,21.7522626 29.6684211,21.4421053 L27.5052632,20.5263158 C27.2210526,20.3842105 26.9526316,20.1157895 26.9526316,19.8631579 C26.9526316,19.2315789 27.2684211,18.9947368 28.1842105,18.9947368 C28.680369,18.9516366 29.1763197,19.0798037 29.5894737,19.3578947 C29.9334958,19.6236299 30.4250219,19.5751695 30.7105263,19.2473684 C30.9809523,18.9016997 30.9247766,18.4031403 30.5842105,18.1263158 C30.1479822,17.7883454 29.6308054,17.5705868 29.0842105,17.4947368 L29.0842105,16.7526316 C29.0758104,16.3201445 28.7272239,15.9715581 28.2947368,15.9631579 C27.8587226,15.9631579 27.5052632,16.3166173 27.5052632,16.7526316 L27.5052632,17.4631579 C26.2589905,17.5477071 25.3105163,18.6156187 25.3736842,19.8631579 C25.3847575,20.8059906 25.9651055,21.6484313 26.8421053,21.9947368 L29.1,22.9105263 C29.4532597,23.0020189 29.6875798,23.3367619 29.6526316,23.7 C29.6810158,23.908602 29.6110265,24.11857 29.4631579,24.2684211 C29.1475421,24.5836284 28.7068971,24.7401733 28.2631579,24.6947368 C27.6582677,24.6924686 27.0706355,24.4928954 26.5894737,24.1263158 C26.3727037,23.9217007 26.0591675,23.8566264 25.7788739,23.9580762 C25.4985804,24.059526 25.2993265,24.3102002 25.2637338,24.6061558 C25.228141,24.9021114 25.3622787,25.1928805 25.6105263,25.3578947 C26.1538257,25.794815 26.8012682,26.0831718 27.4894737,26.1947368 L27.4894737,26.9210526 C27.4887056,27.3305115 27.807098,27.6696686 28.2157895,27.6947368 C27.6334673,28.3436142 27.1299671,29.0591144 26.7157895,29.8263158 C23.0370395,28.9878612 20.4244189,25.7204485 20.4157248,21.9473684 L20.4157248,21.9631579 Z M37.1052632,45.7894737 C31.4370776,45.7894737 26.8421053,41.1945014 26.8421053,35.5263158 C26.8421053,29.8581302 31.4370776,25.2631579 37.1052632,25.2631579 C42.7734487,25.2631579 47.3684211,29.8581302 47.3684211,35.5263158 C47.3684211,41.1945014 42.7734487,45.7894737 37.1052632,45.7894737 L37.1052632,45.7894737 Z" id="Shape" fill="#FFFFFF"></path>
                </g>
            </g>
        </g>
    </g>
</svg>