<?xml version="1.0" encoding="UTF-8"?>
<svg width="60px" height="60px" viewBox="0 0 60 60" version="1.1" xmlns="http://www.w3.org/2000/svg" xmlns:xlink="http://www.w3.org/1999/xlink">
    <title>060-card-b1-circle</title>
    <g id="Page-1" stroke="none" stroke-width="1" fill="none" fill-rule="evenodd">
        <g id="3.0-Simplicity--Card-PDP---Tablet" transform="translate(-211.000000, -3012.000000)">
            <g id="060-card-b1-circle" transform="translate(211.000000, 3012.000000)">
                <circle id="Oval" fill="#333333" fill-rule="nonzero" cx="30" cy="30" r="30"></circle>
                <path d="M42.6315789,36.7894737 L42.6315789,35.8421053 C42.6315789,35.2316853 42.1367358,34.7368421 41.5263158,34.7368421 L35.8421053,34.7368421 C35.2352363,34.745331 34.745331,35.2352363 34.7368421,35.8421053 L34.7368421,36.7894737 C34.745331,37.3963427 35.2352363,37.8862479 35.8421053,37.8947368 L41.5263158,37.8947368 C42.1367358,37.8947368 42.6315789,37.3998937 42.6315789,36.7894737 Z M41.5263158,33.1578947 C43.0087643,33.1578947 44.2105263,34.3596567 44.2105263,35.8421053 L44.2105263,36.7894737 C44.2105263,38.2719222 43.0087643,39.4736842 41.5263158,39.4736842 L35.8421053,39.4736842 C34.3596567,39.4736842 33.1578947,38.2719222 33.1578947,36.7894737 L33.1578947,35.8421053 C33.1578947,34.3596567 34.3596567,33.1578947 35.8421053,33.1578947 L41.5263158,33.1578947 Z M13.6578947,17.3684211 C13.0685802,17.4023637 12.6134924,17.8994596 12.6315789,18.4894737 L12.6315789,22.1052632 L47.3684211,22.1052632 L47.3684211,18.4894737 C47.3865076,17.8994596 46.9314198,17.4023637 46.3421053,17.3684211 L13.6578947,17.3684211 Z M46.3421053,42.6315789 C46.9314198,42.5976363 47.3865076,42.1005404 47.3684211,41.5105263 L47.3684211,23.6842105 L12.6315789,23.6842105 L12.6315789,41.5105263 C12.6134924,42.1005404 13.0685802,42.5976363 13.6578947,42.6315789 L46.3421053,42.6315789 Z M46.3421053,15.7894737 C47.0456633,15.801925 47.7154457,16.0934114 48.2040512,16.5997844 C48.6926567,17.1061573 48.9600441,17.7859197 48.9473684,18.4894737 L48.9473684,41.5105263 C48.9600441,42.2140803 48.6926567,42.8938427 48.2040512,43.4002156 C47.7154457,43.9065886 47.0456633,44.198075 46.3421053,44.2105263 L13.6578947,44.2105263 C12.196527,44.1760353 11.0349255,42.9721938 11.0524318,41.5105263 L11.0524318,18.4894737 C11.0349255,17.0278062 12.196527,15.8239647 13.6578947,15.7894737 L46.3421053,15.7894737 Z" id="Shape" fill="#FFFFFF"></path>
            </g>
        </g>
    </g>
</svg>