<?xml version="1.0" encoding="UTF-8"?>
<svg width="60px" height="60px" viewBox="0 0 60 60" version="1.1" xmlns="http://www.w3.org/2000/svg" xmlns:xlink="http://www.w3.org/1999/xlink">
    <title>101-certificate-reward-b1-circle</title>
    <g id="Page-1" stroke="none" stroke-width="1" fill="none" fill-rule="evenodd">
        <g id="3.0-Simplicity--Card-PDP---Tablet" transform="translate(-391.000000, -3012.000000)">
            <g id="101-certificate-reward-b1-circle" transform="translate(391.000000, 3012.000000)">
                <circle id="Oval" fill="#333333" fill-rule="nonzero" cx="30" cy="30" r="30"></circle>
                <path d="M32.8421053,27.1263158 L34.5631579,31.7210526 L30,29.4473684 L25.4368421,31.7210526 L27.1578947,27.1263158 L23.6842105,23.6842105 L28.3263158,23.6842105 L30,19.0736842 L31.7052632,23.6842105 L36.3157895,23.6842105 L32.8421053,27.1263158 Z M36.3157895,22.1052632 L32.7315789,22.1052632 L31.3894737,18.5210526 C31.2290528,18.1262483 30.9158569,17.8130524 30.5210526,17.6526316 C29.7536726,17.3650127 28.8984058,17.7537703 28.6105263,18.5210526 L27.2684211,22.1052632 L23.6842105,22.1052632 C23.0884742,22.1111465 22.5539899,22.4726775 22.3268061,23.0234259 C22.0996224,23.5741744 22.2237729,24.2073922 22.6421053,24.6315789 L25.4842105,27.4578947 L24.0947368,31.1684211 C23.9285126,31.5456586 23.9285126,31.9753941 24.0947368,32.3526316 C24.4941529,33.0457419 25.3488114,33.3306281 26.0842105,33.0157895 L30,31.0894737 L33.9,33.0473684 C34.2797884,33.2010004 34.7044221,33.2010004 35.0842105,33.0473684 C35.8100958,32.7172088 36.1758624,31.8976207 35.9368421,31.1368421 L34.5473684,27.4263158 L37.3894737,24.6 C37.7898816,24.1693109 37.8982464,23.5428347 37.6657716,23.0026726 C37.4332968,22.4625105 36.90383,22.1105441 36.3157895,22.1052632 L36.3157895,22.1052632 Z M35.8736842,47.3684211 L30.8210526,43.9894737 C30.3128733,43.6760047 29.6713372,43.6760047 29.1631579,43.9894737 L24.0631579,47.4789474 L24.0631579,39.3789474 C27.8289077,41.0203656 32.1079344,41.0203656 35.8736842,39.3789474 L35.8736842,47.3684211 Z M30,39.1263158 C22.6575196,39.1263158 16.7052632,33.1740594 16.7052632,25.8315789 C16.7052632,18.4890985 22.6575196,12.5368421 30,12.5368421 C37.3424804,12.5368421 43.2947368,18.4890985 43.2947368,25.8315789 C43.2947368,33.1740594 37.3424804,39.1263158 30,39.1263158 Z M44.779019,25.8315789 C44.801165,18.6445782 39.6498462,12.4835392 32.5725234,11.2325497 C25.4952005,9.98156022 18.5439625,14.0033479 16.1010601,20.7624678 C13.6581577,27.5215876 16.431917,35.0582146 22.6736842,38.6210526 L22.6736842,47.4631579 C22.6736842,48.2828647 23.3381879,48.9473684 24.1578947,48.9473684 C24.4496673,48.9406572 24.7338708,48.8532099 24.9789474,48.6947368 L30,45.2052632 L35.0526316,48.5842105 C35.5060295,48.9024196 36.0988959,48.941672 36.5902881,48.6860152 C37.0816803,48.4303584 37.3898183,47.9223403 37.3894737,47.3684211 L37.3894737,38.6210526 C41.9615504,35.9851251 44.779019,31.1090783 44.779019,25.8315789 Z" id="Shape" fill="#FFFFFF"></path>
            </g>
        </g>
    </g>
</svg>