<?xml version="1.0" encoding="UTF-8"?>
<svg width="60px" height="60px" viewBox="0 0 60 60" version="1.1" xmlns="http://www.w3.org/2000/svg" xmlns:xlink="http://www.w3.org/1999/xlink">
    <title>140-plane-b1-circle</title>
    <g id="Page-1" stroke="none" stroke-width="1" fill="none" fill-rule="evenodd">
        <g id="1.1-Simplicity-Card-PDP_Protection" transform="translate(-690.000000, -2657.000000)">
            <g id="Group-7" transform="translate(152.000000, 2572.000000)">
                <g id="140-plane-b1-circle" transform="translate(538.000000, 85.000000)">
                    <circle id="Oval" fill="#333333" fill-rule="nonzero" cx="30" cy="30" r="30"></circle>
                    <path d="M25.5789474,27.3315789 L12.6315789,22.3421053 C12.3832946,22.2447181 12.2009638,22.0285586 12.1468234,21.7674108 C12.092683,21.506263 12.1740528,21.2354338 12.3631579,21.0473684 L15.5210526,17.8894737 C16.1027904,17.306046 16.9459247,17.066859 17.7473684,17.2578947 L31.8315789,20.5894737 C32.0978071,20.6544955 32.37871,20.5767989 32.5736842,20.3842105 L40.0894737,12.8684211 C41.8945728,11.0589618 44.8247513,11.0554272 46.6342105,12.8605263 C48.4436698,14.6656254 48.4472044,17.5958039 46.6421053,19.4052632 L39.1578947,26.9052632 C38.9510159,27.1049756 38.8719623,27.4029467 38.9526316,27.6789474 L43.2631579,42.7736842 C43.5103334,43.6142843 43.266511,44.5225231 42.6315789,45.1263158 L39.4736842,48.2842105 C39.2898634,48.4678561 39.0274475,48.5492913 38.7719535,48.5019776 C38.5164594,48.4546639 38.3006062,48.2846604 38.1947368,48.0473684 L32.1473684,33.8368421 L28.0578947,37.8947368 C27.8922728,38.0608647 27.8109679,38.2931643 27.8368421,38.5263158 L28.2631579,43.8 C28.2867488,44.0328867 28.2057772,44.2642342 28.0421053,44.4315789 L25.4052632,47.0684211 C25.2236838,47.2530711 24.9630902,47.336925 24.7079015,47.2928183 C24.4527128,47.2487116 24.2353828,47.0822536 24.1263158,46.8473684 L20.7,39.4736842 C20.6259846,39.3003381 20.4912346,39.1599736 20.3210526,39.0789474 L12.6315789,35.3210526 C12.4026464,35.2105475 12.2409313,34.9965657 12.1971109,34.7461635 C12.1532905,34.4957612 12.2327267,34.239578 12.4105263,34.0578947 L15.0631579,31.4210526 C15.2214867,31.2522166 15.4482874,31.1649855 15.6789474,31.1842105 L20.9684211,31.6263158 C21.2037747,31.6458058 21.4354941,31.5589111 21.6,31.3894737 L25.5789474,27.3315789 Z M41.4789474,44.0210526 C41.6713521,43.8131165 41.742969,43.5206807 41.6684211,43.2473684 L37.3578947,28.1368421 C37.0994276,27.3231799 37.3052444,26.433325 37.8947368,25.8157895 L45.3789474,18.3315789 C46.5692663,17.14126 46.5692663,15.2113716 45.3789474,14.0210526 C44.1886284,12.8307337 42.25874,12.8307337 41.0684211,14.0210526 L33.5526316,21.5368421 C32.9708938,22.1202698 32.1277595,22.3594568 31.3263158,22.1684211 L17.3684211,18.8210526 C17.0993218,18.7567446 16.8163646,18.8410297 16.6263158,19.0421053 L14.3526316,21.3 L27.3473684,26.2894737 C27.5956527,26.3868608 27.7779836,26.6030204 27.832124,26.8641681 C27.8862644,27.1253159 27.8048946,27.3961451 27.6157895,27.5842105 L22.6894737,32.5105263 C22.1980793,33.0005943 21.5186047,33.2539578 20.8263158,33.2052632 L15.7894737,32.7947368 L14.2105263,34.3736842 L20.9842105,37.5315789 C21.4824721,37.7710876 21.8796848,38.1794894 22.1052632,38.6842105 L25.0578947,45.1105263 L26.6368421,43.5315789 L26.2263158,38.6052632 C26.1666544,37.9097549 26.4147958,37.223038 26.9052632,36.7263158 L31.8315789,31.8 C32.0206979,31.6176753 32.2868615,31.5390585 32.5446934,31.5893671 C32.8025254,31.6396758 33.0196107,31.8125851 33.1263158,32.0526316 L39.1736842,46.2631579 L41.4789474,44.0210526 Z" id="Shape" fill="#FFFFFF"></path>
                </g>
            </g>
        </g>
    </g>
</svg>