<?xml version="1.0" encoding="UTF-8"?>
<svg width="26px" height="26px" viewBox="0 0 26 26" version="1.1" xmlns="http://www.w3.org/2000/svg" xmlns:xlink="http://www.w3.org/1999/xlink">
    <title>icon_globe_med-grey</title>
    <defs>
        <path d="M15.085,23.7969 C15.937,22.7669 16.647,21.1309 17.127,19.1079 C18.59,19.2799 20.067,19.5469 21.563,19.8989 C19.961,21.8829 17.688,23.2969 15.085,23.7969 L15.085,23.7969 Z M4.42,19.8739 C5.918,19.5229 7.398,19.2589 8.87,19.0909 C9.35,21.1219 10.062,22.7639 10.916,23.7969 C8.303,23.2949 6.022,21.8709 4.42,19.8739 L4.42,19.8739 Z M10.916,2.2029 C10.059,3.2389 9.346,4.8879 8.865,6.9279 C7.4,6.7519 5.923,6.4789 4.428,6.1159 C6.029,4.1239 8.307,2.7039 10.916,2.2029 L10.916,2.2029 Z M21.57,6.1119 C20.074,6.4759 18.598,6.7489 17.135,6.9259 C16.654,4.8869 15.941,3.2389 15.085,2.2029 C17.691,2.7039 19.969,4.1229 21.57,6.1119 L21.57,6.1119 Z M17.79,12.4999 C17.763,10.8629 17.606,9.3139 17.342,7.9099 C18.947,7.7119 20.564,7.4069 22.207,6.9909 C23.252,8.5879 23.884,10.4729 23.975,12.4999 L17.79,12.4999 Z M16.341,8.0099 C16.601,9.3649 16.762,10.8839 16.79,12.4999 L9.21,12.4999 C9.238,10.8849 9.399,9.3669 9.659,8.0119 C11.89,8.2229 14.107,8.2229 16.341,8.0099 L16.341,8.0099 Z M13,1.9999 C14.181,1.9999 15.4,3.9949 16.13,7.0269 C14.038,7.2189 11.96,7.2199 9.87,7.0289 C10.599,3.9959 11.819,1.9999 13,1.9999 L13,1.9999 Z M3.791,6.9949 C5.433,7.4099 7.052,7.7139 8.658,7.9109 C8.394,9.3149 8.237,10.8639 8.21,12.4999 L2.025,12.4999 C2.117,10.4739 2.748,8.5909 3.791,6.9949 L3.791,6.9949 Z M2.025,13.4999 L8.21,13.4999 C8.237,15.1439 8.396,16.6979 8.661,18.1069 C7.049,18.2949 5.426,18.5889 3.783,18.9919 C2.745,17.3989 2.116,15.5209 2.025,13.4999 L2.025,13.4999 Z M9.663,18.0109 C9.401,16.6509 9.238,15.1239 9.21,13.4999 L16.79,13.4999 C16.762,15.1299 16.598,16.6599 16.334,18.0249 C14.104,17.8159 11.889,17.8109 9.663,18.0109 L9.663,18.0109 Z M13,23.9999 C11.822,23.9999 10.605,22.0149 9.875,18.9939 C11.959,18.8149 14.033,18.8189 16.122,19.0079 C15.392,22.0209 14.176,23.9999 13,23.9999 L13,23.9999 Z M22.202,19.0179 C20.561,18.6139 18.941,18.3179 17.336,18.1229 C17.604,16.7109 17.763,15.1509 17.79,13.4999 L23.975,13.4999 C23.883,15.5309 23.25,17.4189 22.202,19.0179 L22.202,19.0179 Z M13,0.9999 C6.373,0.9999 1,6.3729 1,12.9999 C1,19.6269 6.373,24.9999 13,24.9999 C19.627,24.9999 25,19.6269 25,12.9999 C25,6.3729 19.627,0.9999 13,0.9999 L13,0.9999 Z" id="path-1"></path>
    </defs>
    <g id="Redlines" stroke="none" stroke-width="1" fill="none" fill-rule="evenodd">
        <g id="B2_Pre-Auth-Header-Interaction" transform="translate(-1447.000000, -608.000000)">
            <g id="nav-header-/-pre-login-/-default-1440" transform="translate(80.000000, 581.000000)">
                <g id="nav-header-/-pre-login-/-default">
                    <g id="header-/-components-/-Espanol" transform="translate(1354.000000, 27.000000)">
                        <g id="icon_globe_med-grey" transform="translate(13.000000, 0.000000)">
                            <rect id="Rectangle" fill="#D8D8D8" fill-rule="nonzero" opacity="0" x="0" y="0" width="26" height="26"></rect>
                            <mask id="mask-2" fill="white">
                                <use xlink:href="#path-1"></use>
                            </mask>
                            <use id="Mask" stroke="#666666" stroke-width="0.2" fill="#666666" xlink:href="#path-1"></use>
                        </g>
                    </g>
                </g>
            </g>
        </g>
    </g>
</svg>